<?xml version="1.0" encoding="utf-8"?>
<!-- Generator: Adobe Illustrator 24.2.1, SVG Export Plug-In . SVG Version: 6.00 Build 0)  -->
<svg version="1.1" id="Layer_1" xmlns="http://www.w3.org/2000/svg" xmlns:xlink="http://www.w3.org/1999/xlink" x="0px" y="0px"
	 viewBox="0 0 400.78 400.78" style="enable-background:new 0 0 400.78 400.78;" xml:space="preserve">
<style type="text/css">
	.st0{opacity:0.25;}
	.st1{fill:#231F20;}
</style>
<g class="st0">
	<path class="st1" d="M200.39,218.75c-10.14,0-18.36-8.22-18.36-18.36V67.4c0-10.14,8.22-18.36,18.36-18.36
		c10.14,0,18.36,8.22,18.36,18.36v132.99C218.75,210.53,210.53,218.75,200.39,218.75z"/>
</g>
<g class="st0">
	<path class="st1" d="M200.39,327.89c-70.3,0-127.5-57.2-127.5-127.5c0-40.89,19.85-79.59,53.11-103.52
		c8.23-5.92,19.7-4.05,25.63,4.18c5.92,8.23,4.05,19.7-4.18,25.63c-23.69,17.05-37.84,44.61-37.84,73.72
		c0,50.06,40.72,90.78,90.78,90.78s90.78-40.72,90.78-90.78c0-29.11-14.15-56.67-37.84-73.72c-8.23-5.92-10.1-17.4-4.18-25.63
		c5.92-8.23,17.4-10.1,25.63-4.18c33.26,23.93,53.11,62.63,53.11,103.52C327.89,270.69,270.69,327.89,200.39,327.89z"/>
</g>
<g class="st0">
	<path class="st1" d="M200.39,400.78C89.89,400.78,0,310.88,0,200.39S89.89,0,200.39,0c110.49,0,200.39,89.89,200.39,200.39
		S310.88,400.78,200.39,400.78z M200.39,36.72c-90.25,0-163.67,73.42-163.67,163.67s73.42,163.67,163.67,163.67
		s163.67-73.42,163.67-163.67S290.64,36.72,200.39,36.72z"/>
</g>
</svg>
